<?xml version="1.0" encoding="UTF-8"?>
<svg version="1.1" xmlns="http://www.w3.org/2000/svg" width="414" height="177">
<path d="M0 0 C8.05165062 6.82171344 12.70365207 13.66643429 15 24 C15 25.98 15 27.96 15 30 C19.95 30 24.9 30 30 30 C29.67 32.31 29.34 34.62 29 37 C25.04 37 21.08 37 17 37 C17 38.98 17 40.96 17 43 C20.3 43 23.6 43 27 43 C27 45.31 27 47.62 27 50 C23.7 50 20.4 50 17 50 C17 52.64 17 55.28 17 58 C21.29 58 25.58 58 30 58 C30 60.31 30 62.62 30 65 C23.07 65 16.14 65 9 65 C8.67 60.71 8.34 56.42 8 52 C6.35 53.32 4.7 54.64 3 56 C2.01 56.33 1.02 56.66 0 57 C0.66 57.33 1.32 57.66 2 58 C2 60.64 2 63.28 2 66 C-10.87 65.505 -10.87 65.505 -24 65 C-22 59 -22 59 -20 56 C-22.66402342 54.10043153 -25.33170249 52.20605888 -28 50.3125 C-29.11568359 49.51682617 -29.11568359 49.51682617 -30.25390625 48.70507812 C-46.18964581 37.41148878 -60.03364141 31.3394461 -80 34 C-82.44525523 34.51951908 -84.64293854 35.15819234 -87 36 C-87 36.33 -87 36.66 -87 37 C-70.665 37.495 -70.665 37.495 -54 38 C-54 46.58 -54 55.16 -54 64 C-65.22 64 -76.44 64 -88 64 C-88 75.88 -88 87.76 -88 100 C-96.58 100 -105.16 100 -114 100 C-114 88.12 -114 76.24 -114 64 C-116.475 64.495 -116.475 64.495 -119 65 C-119.483059 66.39449109 -119.96125517 67.79066707 -120.4375 69.1875 C-120.70433594 69.96480469 -120.97117187 70.74210937 -121.24609375 71.54296875 C-125.39481518 85.06393133 -123.65648924 99.55635472 -117.46875 112.10546875 C-116.03161986 114.77190874 -114.52792715 117.38506183 -113 120 C-112.32167922 121.32744233 -111.65051015 122.65871003 -111 124 C-114.76434997 123.45635208 -116.14678084 122.0981736 -118.4375 119.125 C-127.1101115 107.35104777 -131.57148776 92.6201333 -130 78 C-126.87748487 60.28810626 -119.15479535 46.42899166 -104.453125 35.53125 C-90.48816087 26.81426602 -73.6681721 24.61527113 -57.6875 28.0625 C-47.24691755 31.16294921 -38.71030792 36.90037892 -30.51171875 43.9140625 C-26.369863 47.35379962 -22.12124371 50.29291876 -17 52 C-16.6596875 51.0409375 -16.6596875 51.0409375 -16.3125 50.0625 C-14.50963071 45.855805 -12.25792194 41.9810729 -10 38 C-14.29 38 -18.58 38 -23 38 C-23 35.36 -23 32.72 -23 30 C-14.75 30 -6.5 30 2 30 C1.16478884 34.17605581 0.49205983 36.30724972 -1.50390625 39.86328125 C-1.99697266 40.74951172 -2.49003906 41.63574219 -2.99804688 42.54882812 C-3.77245117 43.9168457 -3.77245117 43.9168457 -4.5625 45.3125 C-5.34270508 46.70952148 -5.34270508 46.70952148 -6.13867188 48.13476562 C-7.41976974 50.42663795 -8.70702105 52.71481613 -10 55 C-0.22712667 53.23805866 -0.22712667 53.23805866 7 47 C7.33 46.67 7.66 46.34 8 46 C8.23678716 43.30764224 8.42198025 40.63501844 8.5625 37.9375 C8.62727539 36.79958008 8.62727539 36.79958008 8.69335938 35.63867188 C8.79973633 33.75934562 8.90039934 31.87969756 9 30 C9.99 30 10.98 30 12 30 C9.55921085 18.27230578 6.26213164 8.88723418 -4 2 C-22.89029624 -9.10542806 -44.0116073 -13.31824818 -65.55859375 -8.125 C-72.22187258 -5.94676583 -80.00944115 -2.99055885 -85 2 C-84.90386182 4.1478534 -84.90386182 4.1478534 -84.4375 6.5625 C-83.60237925 13.26288743 -85.28863643 18.43295465 -89 24 C-89 24.99 -89 25.98 -89 27 C-89.82242188 27.27972656 -90.64484375 27.55945312 -91.4921875 27.84765625 C-106.62023604 33.28047738 -117.56693246 41.64649027 -125 56 C-125.99 58.31 -126.98 60.62 -128 63 C-134.6 63 -141.2 63 -148 63 C-148 55.08 -148 47.16 -148 39 C-137.11 38.67 -126.22 38.34 -115 38 C-113.43387681 26.18485201 -113.43387681 26.18485201 -115.625 16.9375 C-117.35412181 11.81600589 -117.06802395 7.97822959 -115 3 C-113.13108283 -0.1575929 -110.94617165 -2.40526354 -107.8125 -4.375 C-101.89000253 -5.69111055 -96.26881913 -6.09157926 -90.875 -3 C-89.92625 -2.34 -88.9775 -1.68 -88 -1 C-87.40574219 -1.45890625 -86.81148437 -1.9178125 -86.19921875 -2.390625 C-61.73933607 -20.49778543 -24.15533061 -17.47406895 0 0 Z M-110.875 2.6875 C-112.50973412 6.0477868 -113.11439143 9.29657757 -113 13 C-111.38897591 17.6540696 -109.30654931 20.56586343 -105 23 C-100.91848496 23.88995441 -97.52729652 23.93113988 -93.8984375 21.71875 C-91.44780837 19.66143172 -89.43944656 17.87889311 -88 15 C-87.61106181 10.33274174 -87.54852163 7.92032129 -89.625 3.6875 C-92.25242801 0.71435778 -94.29940882 -0.61227831 -98 -2 C-103.09095687 -2 -107.03449823 -0.7689516 -110.875 2.6875 Z " fill="#FC3232" transform="translate(184,34)"/>
<path d="M0 0 C8.05165062 6.82171344 12.70365207 13.66643429 15 24 C15.125 27.4375 15.125 27.4375 15 30 C14.01 30 13.02 30 12 30 C11.84144531 29.23816406 11.68289062 28.47632813 11.51953125 27.69140625 C9.0528443 16.77529439 5.51886075 8.38840208 -4 2 C-22.89029624 -9.10542806 -44.0116073 -13.31824818 -65.55859375 -8.125 C-72.22187258 -5.94676583 -80.00944115 -2.99055885 -85 2 C-84.90386182 4.1478534 -84.90386182 4.1478534 -84.4375 6.5625 C-83.60237925 13.26288743 -85.28863643 18.43295465 -89 24 C-89 24.99 -89 25.98 -89 27 C-89.82242188 27.27972656 -90.64484375 27.55945312 -91.4921875 27.84765625 C-106.62023604 33.28047738 -117.56693246 41.64649027 -125 56 C-125.99 58.31 -126.98 60.62 -128 63 C-134.6 63 -141.2 63 -148 63 C-148 55.08 -148 47.16 -148 39 C-137.11 38.67 -126.22 38.34 -115 38 C-113.43387681 26.18485201 -113.43387681 26.18485201 -115.625 16.9375 C-117.35412181 11.81600589 -117.06802395 7.97822959 -115 3 C-113.13108283 -0.1575929 -110.94617165 -2.40526354 -107.8125 -4.375 C-101.89000253 -5.69111055 -96.26881913 -6.09157926 -90.875 -3 C-89.92625 -2.34 -88.9775 -1.68 -88 -1 C-87.40574219 -1.45890625 -86.81148437 -1.9178125 -86.19921875 -2.390625 C-61.73933607 -20.49778543 -24.15533061 -17.47406895 0 0 Z M-110.875 2.6875 C-112.50973412 6.0477868 -113.11439143 9.29657757 -113 13 C-111.38897591 17.6540696 -109.30654931 20.56586343 -105 23 C-100.91848496 23.88995441 -97.52729652 23.93113988 -93.8984375 21.71875 C-91.44780837 19.66143172 -89.43944656 17.87889311 -88 15 C-87.61106181 10.33274174 -87.54852163 7.92032129 -89.625 3.6875 C-92.25242801 0.71435778 -94.29940882 -0.61227831 -98 -2 C-103.09095687 -2 -107.03449823 -0.7689516 -110.875 2.6875 Z " fill="#E77D7F" transform="translate(184,34)"/>
<path d="M0 0 C8.25 0 16.5 0 25 0 C24.16478884 4.17605581 23.49205983 6.30724972 21.49609375 9.86328125 C21.00302734 10.74951172 20.50996094 11.63574219 20.00195312 12.54882812 C19.48568359 13.46083984 18.96941406 14.37285156 18.4375 15.3125 C17.91736328 16.24384766 17.39722656 17.17519531 16.86132812 18.13476562 C15.58023026 20.42663795 14.29297895 22.71481613 13 25 C22.77287333 23.23805866 22.77287333 23.23805866 30 17 C30.33 16.67 30.66 16.34 31 16 C31.23695148 13.30577395 31.42168602 10.63665389 31.5625 7.9375 C31.706875 5.318125 31.85125 2.69875 32 0 C38.93 0 45.86 0 53 0 C52.67 2.31 52.34 4.62 52 7 C48.04 7 44.08 7 40 7 C40 8.98 40 10.96 40 13 C43.3 13 46.6 13 50 13 C50 15.31 50 17.62 50 20 C46.7 20 43.4 20 40 20 C40 22.64 40 25.28 40 28 C44.29 28 48.58 28 53 28 C53 30.31 53 32.62 53 35 C46.07 35 39.14 35 32 35 C31.67 30.71 31.34 26.42 31 22 C29.35 23.32 27.7 24.64 26 26 C25.01 26.33 24.02 26.66 23 27 C23.66 27.33 24.32 27.66 25 28 C25 30.64 25 33.28 25 36 C12.13 35.505 12.13 35.505 -1 35 C1 29 1 29 3 26 C3.66 26 4.32 26 5 26 C5.20625 25.071875 5.4125 24.14375 5.625 23.1875 C7.16230441 17.69389746 10.19947879 12.93135256 13 8 C8.71 8 4.42 8 0 8 C0 5.36 0 2.72 0 0 Z " fill="#262626" transform="translate(161,64)"/>
<path d="M0 0 C79.86 0 159.72 0 242 0 C242 1.32 242 2.64 242 4 C162.14 4 82.28 4 0 4 C0 2.68 0 1.36 0 0 Z " fill="#B860A4" transform="translate(139,105)"/>
<path d="M0 0 C3.5 1.875 3.5 1.875 5.5625 4.5625 C6.79948571 8.93318283 6.51781824 11.44022051 5.5 15.875 C4.5 16.875 3.5 17.875 2.5 18.875 C2.5 24.93003544 5.92341161 30.53166909 8.5 35.875 C5.53 35.875 2.56 35.875 -0.5 35.875 C-1.50484204 33.91914675 -2.50373805 31.96023763 -3.5 30 C-4.056875 28.90945312 -4.61375 27.81890625 -5.1875 26.6953125 C-6.5 23.875 -6.5 23.875 -6.5 21.875 C-7.82 21.875 -9.14 21.875 -10.5 21.875 C-10.5 26.165 -10.5 30.455 -10.5 34.875 C-13.14 34.875 -15.78 34.875 -18.5 34.875 C-18.5 23.325 -18.5 11.775 -18.5 -0.125 C-12.62498184 -2.08333939 -5.90246091 -1.8616296 0 0 Z M-10.5 5.875 C-10.5 8.845 -10.5 11.815 -10.5 14.875 C-8.1984589 15.65302187 -8.1984589 15.65302187 -5.5 15.875 C-3.19495956 14.54346734 -3.19495956 14.54346734 -1.5 12.875 C-1.68828772 10.43019921 -1.68828772 10.43019921 -2.5 7.875 C-5.39810116 5.77637502 -6.78378861 5.875 -10.5 5.875 Z " fill="#282828" transform="translate(329.5,64.125)"/>
<path d="M0 0 C11.22 0 22.44 0 34 0 C32.36054165 3.2789167 30.9913271 5.32957872 28.6875 8.0625 C24.74025026 13.01720679 22.43574546 18.168973 20 24 C13.4 24 6.8 24 0 24 C0 16.08 0 8.16 0 0 Z " fill="#6423E5" transform="translate(36,73)"/>
<path d="M0 0 C2.64 0 5.28 0 8 0 C13.09197297 11.38349726 16.97888305 23.20792091 21 35 C17.06329512 36.31223496 14.87511856 35.24296256 11 34 C10.67 32.02 10.34 30.04 10 28 C6.04 28 2.08 28 -2 28 C-2.2165625 29.7015625 -2.2165625 29.7015625 -2.4375 31.4375 C-3 35 -3 35 -4 36 C-6.69082872 35.82364548 -9.32851446 35.38164079 -12 35 C-9.76946204 27.16596949 -7.10146508 19.52574949 -4.3125 11.875 C-3.89677734 10.72773437 -3.48105469 9.58046875 -3.05273438 8.3984375 C-2.03759802 5.59806135 -1.01997571 2.79861634 0 0 Z M4 12 C3.01 14.97 2.02 17.94 1 21 C2.98 21 4.96 21 7 21 C6.34 18.03 5.68 15.06 5 12 C4.67 12 4.34 12 4 12 Z " fill="#242524" transform="translate(287,64)"/>
<path d="M0 0 C0 2.97 0 5.94 0 9 C-0.639375 8.67 -1.27875 8.34 -1.9375 8 C-6.02188087 6.66632461 -9.73919317 6.47436776 -14 7 C-17.28931514 8.72689045 -17.8140267 9.4420801 -19 13 C-19.37279581 18.03274337 -19.00975759 20.90672968 -16 25 C-14.36162655 26.63837345 -12.49983422 26.17085921 -10.25 26.1875 C-6.3986669 26.15991165 -3.46011805 25.84539629 0 24 C0.23389583 26.85352915 0.40826254 29.20284991 0 32 C-2.32109771 34.56121126 -4.18996508 34.91382607 -7.5703125 35.2734375 C-13.08172186 35.46866453 -17.38210415 35.29849704 -22 32 C-26.55279383 27.4596116 -28.15687056 23.7096892 -28.3125 17.3125 C-28.2450821 11.73704002 -27.61860803 7.37819923 -24 3 C-17.09619919 -2.49420807 -7.98004806 -3.99002403 0 0 Z " fill="#2B2B2B" transform="translate(273,65)"/>
<path d="M0 0 C6.6 0 13.2 0 20 0 C20 2.31 20 4.62 20 7 C16.04 7 12.08 7 8 7 C8 8.98 8 10.96 8 13 C10.97 13 13.94 13 17 13 C17 15.31 17 17.62 17 20 C14.03 20 11.06 20 8 20 C8 22.64 8 25.28 8 28 C12.29 28 16.58 28 21 28 C21 29.98 21 31.96 21 34 C20 35 20 35 18.05053711 35.11352539 C16.8015564 35.10567017 16.8015564 35.10567017 15.52734375 35.09765625 C14.71773193 35.09515869 13.90812012 35.09266113 13.07397461 35.09008789 C12.03893799 35.08098389 11.00390137 35.07187988 9.9375 35.0625 C6.658125 35.041875 3.37875 35.02125 0 35 C0 23.45 0 11.9 0 0 Z " fill="#212121" transform="translate(343,64)"/>
<path d="M0 0 C6.6 0 13.2 0 20 0 C20 2.31 20 4.62 20 7 C16.04 7 12.08 7 8 7 C8 8.98 8 10.96 8 13 C10.97 13 13.94 13 17 13 C17 15.31 17 17.62 17 20 C14.03 20 11.06 20 8 20 C8 22.64 8 25.28 8 28 C11.96 28 15.92 28 20 28 C20 30.31 20 32.62 20 35 C13.4 35 6.8 35 0 35 C0 23.45 0 11.9 0 0 Z " fill="#1F1E1F" transform="translate(221,64)"/>
<path d="M0 0 C0.33 0.639375 0.66 1.27875 1 1.9375 C3.46028855 4.9052585 3.46028855 4.9052585 11 5 C11 16.55 11 28.1 11 40 C18.92 40 26.84 40 35 40 C35 28.45 35 16.9 35 5 C46.55 5 58.1 5 70 5 C70 5.33 70 5.66 70 6 C58.78 6 47.56 6 36 6 C36 17.88 36 29.76 36 42 C27.42 42 18.84 42 10 42 C10 30.12 10 18.24 10 6 C8.35 6.33 6.7 6.66 5 7 C4.516941 8.39449109 4.03874483 9.79066707 3.5625 11.1875 C3.29566406 11.96480469 3.02882813 12.74210937 2.75390625 13.54296875 C-1.39481518 27.06393133 0.34351076 41.55635472 6.53125 54.10546875 C7.96838014 56.77190874 9.47207285 59.38506183 11 62 C11.67832078 63.32744233 12.34948985 64.65871003 13 66 C9.23565003 65.45635208 7.85321916 64.0981736 5.5625 61.125 C-3.08689653 49.38256445 -7.62514361 34.5913432 -6 20 C-4.75309836 13.26673113 -3.39581723 5.99621781 0 0 Z " fill="#EE7574" transform="translate(60,92)"/>
<path d="M0 0 C6.6 0 13.2 0 20 0 C19.67 2.31 19.34 4.62 19 7 C15.04 7 11.08 7 7 7 C7 8.98 7 10.96 7 13 C10.3 13 13.6 13 17 13 C17 15.31 17 17.62 17 20 C13.7 20 10.4 20 7 20 C7 22.64 7 25.28 7 28 C11.29 28 15.58 28 20 28 C20 30.31 20 32.62 20 35 C13.4 35 6.8 35 0 35 C0 23.45 0 11.9 0 0 Z " fill="#242323" transform="translate(194,64)"/>
<path d="M0 0 C2.90908128 2.22369564 5.70621193 4.53407327 8.48828125 6.9140625 C12.630137 10.35379962 16.87875629 13.29291876 22 15 C21.34 16.32 20.68 17.64 20 19 C17.83072598 17.62897007 15.66400569 16.25431055 13.5 14.875 C12.85506592 14.46411133 12.21013184 14.05322266 11.5456543 13.62988281 C8.17857013 11.46566161 4.94000347 9.25462542 1.8125 6.75 C-9.62667837 -1.98053571 -23.79989139 -4.88942326 -37.91015625 -3.4609375 C-41.44250437 -2.93398797 -44.64042261 -2.19984907 -48 -1 C-48 -0.67 -48 -0.34 -48 0 C-31.665 0.495 -31.665 0.495 -15 1 C-15 1.33 -15 1.66 -15 2 C-26.22 2 -37.44 2 -49 2 C-49.66 -0.31 -50.32 -2.62 -51 -5 C-53.64 -4.67 -56.28 -4.34 -59 -4 C-44.72777484 -18.27222516 -13.96971177 -8.94612084 0 0 Z " fill="#ED6060" transform="translate(145,71)"/>
<path d="M0 0 C2.4838956 3.12653138 2.58212918 6.80450131 2.34375 10.69140625 C-0.45143072 16.08899661 -0.45143072 16.08899661 -3.65625 17.69140625 C-6.71545574 18.11212217 -9.6030246 18.17654742 -12.65625 17.69140625 C-15.41194447 15.5098148 -17.09213747 13.81963131 -18.65625 10.69140625 C-18.78197207 6.03968976 -18.56305787 2.67173908 -15.34375 -0.80859375 C-10.00153256 -3.79029651 -5.17807467 -4.09116749 0 0 Z " fill="#5F1BE6" transform="translate(91.65625,37.30859375)"/>
<path d="M0 0 C8.05165062 6.82171344 12.70365207 13.66643429 15 24 C15.125 27.4375 15.125 27.4375 15 30 C14.01 30 13.02 30 12 30 C11.76216797 28.85724609 11.76216797 28.85724609 11.51953125 27.69140625 C9.0528443 16.77529439 5.51886075 8.38840208 -4 2 C-23.314152 -9.35460889 -44.2870599 -13.19108448 -66.14453125 -7.65625 C-69 -7 -69 -7 -73 -7 C-73 -7.99 -73 -8.98 -73 -10 C-71.31409158 -10.48473678 -69.62617455 -10.96248926 -67.9375 -11.4375 C-66.99777344 -11.70433594 -66.05804688 -11.97117187 -65.08984375 -12.24609375 C-43.20947092 -17.58479407 -18.27684152 -13.22154493 0 0 Z " fill="#E67C7C" transform="translate(184,34)"/>
<path d="M0 0 C2.97 0.495 2.97 0.495 6 1 C5.34 2.65 4.68 4.3 4 6 C8.95 6 13.9 6 19 6 C19 8.31 19 10.62 19 13 C6.13 12.505 6.13 12.505 -7 12 C-5 6 -5 6 -3 3 C-2.34 3 -1.68 3 -1 3 C-0.67 2.01 -0.34 1.02 0 0 Z " fill="#171515" transform="translate(167,87)"/>
<path d="M0 0 C0.33 0.66 0.66 1.32 1 2 C2.97888961 2.72693904 4.97954558 3.39816251 7 4 C6.67 7.96 6.34 11.92 6 16 C10.29 16 14.58 16 19 16 C19 17.98 19 19.96 19 22 C12.73 22 6.46 22 0 22 C0 14.74 0 7.48 0 0 Z " fill="#020101" transform="translate(194,77)"/>
<path d="M0 0 C0.33 0 0.66 0 1 0 C1.33 8.25 1.66 16.5 2 25 C2.66 25 3.32 25 4 25 C3.98952637 24.37432129 3.97905273 23.74864258 3.96826172 23.10400391 C3.92676809 20.2777099 3.90069527 17.45147989 3.875 14.625 C3.84986328 13.14773437 3.84986328 13.14773437 3.82421875 11.640625 C3.81777344 10.69960937 3.81132813 9.75859375 3.8046875 8.7890625 C3.79421387 7.91975098 3.78374023 7.05043945 3.77294922 6.15478516 C4 4 4 4 6 2 C5.97905273 2.5983667 5.95810547 3.1967334 5.93652344 3.81323242 C5.41220228 21.09094193 7.16083455 32.8723997 16 48 C16.67832078 49.32744233 17.34948985 50.65871003 18 52 C14.23565003 51.45635208 12.85321916 50.0981736 10.5625 47.125 C0.88228248 33.98312011 -2.64617007 18.34627553 -0.5 2.25 C-0.335 1.5075 -0.17 0.765 0 0 Z " fill="#EB6E6E" transform="translate(55,106)"/>
<path d="M0 0 C4.34283507 1.25796824 7.47861655 2.82057989 11.0625 5.5625 C15.32998335 8.7587221 19.62504127 11.89108209 24 14.9375 C25.0725 15.68902344 26.145 16.44054687 27.25 17.21484375 C29.92367693 19.11417125 29.92367693 19.11417125 33 20 C32.34 21.32 31.68 22.64 31 24 C28.83072598 22.62897007 26.66400569 21.25431055 24.5 19.875 C23.85506592 19.46411133 23.21013184 19.05322266 22.5456543 18.62988281 C19.17857013 16.46566161 15.94000347 14.25462542 12.8125 11.75 C9.00297713 8.78154062 4.84924041 6.95313417 0.41796875 5.078125 C-2 4 -2 4 -5 2 C-3.35 2 -1.7 2 0 2 C0 1.34 0 0.68 0 0 Z " fill="#E47A7D" transform="translate(134,66)"/>
<path d="M0 0 C0.7007666 0.00410889 1.4015332 0.00821777 2.12353516 0.01245117 C11.46472673 0.11348988 11.46472673 0.11348988 16.0625 1.125 C16.7225 2.115 17.3825 3.105 18.0625 4.125 C17.34819824 4.10928955 16.63389648 4.0935791 15.89794922 4.07739258 C-1.91733007 3.5676208 -1.91733007 3.5676208 -19.3984375 6.46875 C-21.9375 7.125 -21.9375 7.125 -25.9375 7.125 C-25.9375 6.135 -25.9375 5.145 -25.9375 4.125 C-24.25159158 3.64026322 -22.56367455 3.16251074 -20.875 2.6875 C-19.93527344 2.42066406 -18.99554688 2.15382813 -18.02734375 1.87890625 C-12.02082438 0.4133459 -6.16577531 -0.04358744 0 0 Z " fill="#E77070" transform="translate(136.9375,19.875)"/>
<path d="M0 0 C0.33 0 0.66 0 1 0 C1 11.55 1 23.1 1 35 C0.67 35 0.34 35 0 35 C-0.495 28.565 -0.495 28.565 -1 22 C-2.65 23.32 -4.3 24.64 -6 26 C-6.99 26.33 -7.98 26.66 -9 27 C-8.34 27.66 -7.68 28.32 -7 29 C-11.95 29 -16.9 29 -22 29 C-21.34 27.35 -20.68 25.7 -20 24 C-19.030625 24.0825 -18.06125 24.165 -17.0625 24.25 C-11.59589438 24.25 -6.25490427 22.12707523 -2.27734375 18.375 C-0.43676073 14.95275389 -0.43001944 11.55091445 -0.3125 7.75 C-0.27833984 7.00492187 -0.24417969 6.25984375 -0.20898438 5.4921875 C-0.12685946 3.66197508 -0.06174347 1.83101331 0 0 Z " fill="#D3888A" transform="translate(193,64)"/>
<path d="M0 0 C1.8125 0.0625 1.8125 0.0625 4 1 C5.75 4.5625 5.75 4.5625 7 8 C7.33 5.36 7.66 2.72 8 0 C8.99 0 9.98 0 11 0 C11 3.3 11 6.6 11 10 C12.65 10 14.3 10 16 10 C16 10.66 16 11.32 16 12 C12.37 12 8.74 12 5 12 C4.67 11.01 4.34 10.02 4 9 C2.35 9 0.7 9 -1 9 C-1 9.99 -1 10.98 -1 12 C-1.99 12 -2.98 12 -4 12 C-3.52309796 10.37433394 -3.04340334 8.74948689 -2.5625 7.125 C-2.29566406 6.22007813 -2.02882812 5.31515625 -1.75390625 4.3828125 C-1 2 -1 2 0 0 Z M1 4 C1 4.99 1 5.98 1 7 C1.66 7 2.32 7 3 7 C2.67 6.01 2.34 5.02 2 4 C1.67 4 1.34 4 1 4 Z " fill="#626262" transform="translate(237,114)"/>
<path d="M0 0 C0.86625 0.433125 1.7325 0.86625 2.625 1.3125 C2.068125 1.539375 1.51125 1.76625 0.9375 2 C-2.6120424 4.01460515 -5.63568715 6.17969446 -7.01953125 10.171875 C-7.93732176 15.37604977 -6.78522526 18.6848675 -4.375 23.3125 C-5.035 23.3125 -5.695 23.3125 -6.375 23.3125 C-7.035 23.9725 -7.695 24.6325 -8.375 25.3125 C-11.55703792 20.74696733 -12.96266278 16.63307997 -11.97265625 11.0390625 C-10.25946416 4.93644927 -7.32398026 -1.4919219 0 0 Z " fill="#E97374" transform="translate(79.375,30.6875)"/>
<path d="M0 0 C0.99 0 1.98 0 3 0 C3.99 1.98 4.98 3.96 6 6 C6.66 4.02 7.32 2.04 8 0 C9.32 0 10.64 0 12 0 C12 3.96 12 7.92 12 12 C10.68 11.67 9.36 11.34 8 11 C5.81296615 11.37907282 5.81296615 11.37907282 4 12 C3.67 11.01 3.34 10.02 3 9 C2.67 9.99 2.34 10.98 2 12 C1.34 12 0.68 12 0 12 C0 8.04 0 4.08 0 0 Z " fill="#A3A3A3" transform="translate(181,114)"/>
<path d="M0 0 C1.98 0.99 3.96 1.98 6 3 C8.96165991 3.56206954 8.96165991 3.56206954 11.875 3.6875 C12.84179688 3.75324219 13.80859375 3.81898437 14.8046875 3.88671875 C15.52914062 3.92410156 16.25359375 3.96148437 17 4 C13.88990924 6.39521208 10.67672984 8.56495939 7.375 10.6875 C6.41335937 11.31011719 5.45171875 11.93273437 4.4609375 12.57421875 C2 14 2 14 0 14 C0 9.38 0 4.76 0 0 Z " fill="#5E29CA" transform="translate(71,58)"/>
<path d="M0 0 C1.29596432 2.15081966 2.06341995 3.43252507 1.77978516 5.97045898 C1.57659668 6.65954346 1.3734082 7.34862793 1.1640625 8.05859375 C-0.19797334 13.39195881 -0.44180735 18.57817017 -0.625 24.0625 C-0.66367187 25.02349609 -0.70234375 25.98449219 -0.7421875 26.97460938 C-0.83538626 29.31622814 -0.92119185 31.65786037 -1 34 C-1.66 34 -2.32 34 -3 34 C-4.15664737 28.51730931 -4.11416255 23.19660726 -4.0625 17.625 C-4.05798828 16.69816406 -4.05347656 15.77132812 -4.04882812 14.81640625 C-4.03711574 12.54420291 -4.02071372 10.27213612 -4 8 C-3.34 8 -2.68 8 -2 8 C-1.855625 6.865625 -1.71125 5.73125 -1.5625 4.5625 C-1 1 -1 1 0 0 Z " fill="#F33636" transform="translate(60,97)"/>
<path d="M0 0 C-0.99 0.33 -1.98 0.66 -3 1 C-3.33 1.66 -3.66 2.32 -4 3 C0.62 3 5.24 3 10 3 C10 3.33 10 3.66 10 4 C3.07 5.485 3.07 5.485 -4 7 C-4 7.33 -4 7.66 -4 8 C12.335 8.495 12.335 8.495 29 9 C29 9.33 29 9.66 29 10 C17.78 10 6.56 10 -5 10 C-5.66 7.69 -6.32 5.38 -7 3 C-9.64 3.33 -12.28 3.66 -15 4 C-12.83900627 1.83900627 -11.4789582 1.28436284 -8.625 0.3125 C-7.46871094 -0.09548828 -7.46871094 -0.09548828 -6.2890625 -0.51171875 C-3.79944692 -1.04278009 -2.38446982 -0.81115526 0 0 Z " fill="#EB7170" transform="translate(101,63)"/>
<path d="M0 0 C4.62 0 9.24 0 14 0 C14 0.66 14 1.32 14 2 C12.68 2 11.36 2 10 2 C10 5.3 10 8.6 10 12 C9.01 12 8.02 12 7 12 C7 8.7 7 5.4 7 2 C5.68 2 4.36 2 3 2 C3 5.3 3 8.6 3 12 C2.01 12 1.02 12 0 12 C0 8.04 0 4.08 0 0 Z " fill="#8C8C8C" transform="translate(297,114)"/>
<path d="M0 0 C0.99 0 1.98 0 3 0 C4.6875 2.5 4.6875 2.5 6 5 C6.33 3.35 6.66 1.7 7 0 C7.99 0 8.98 0 10 0 C10 3.96 10 7.92 10 12 C5.70574125 10.92643531 5.25259529 10.4915227 3 7 C2.67 8.65 2.34 10.3 2 12 C1.34 12 0.68 12 0 12 C0 8.04 0 4.08 0 0 Z " fill="#9A9A9A" transform="translate(264,114)"/>
<path d="M0 0 C1.98 0.66 3.96 1.32 6 2 C6 2.99 6 3.98 6 5 C5.01 5 4.02 5 3 5 C3 4.34 3 3.68 3 3 C1.68 3 0.36 3 -1 3 C-1 3.66 -1 4.32 -1 5 C-0.030625 5.144375 0.93875 5.28875 1.9375 5.4375 C5 6 5 6 6 7 C6.25 9.4375 6.25 9.4375 6 12 C3 14 3 14 -0.1875 13.625 C-1.5796875 13.315625 -1.5796875 13.315625 -3 13 C-3.33 11.68 -3.66 10.36 -4 9 C-3.01 9 -2.02 9 -1 9 C-1 9.66 -1 10.32 -1 11 C0.65 11 2.3 11 4 11 C4 10.34 4 9.68 4 9 C2.865625 8.731875 1.73125 8.46375 0.5625 8.1875 C-0.613125 7.795625 -1.78875 7.40375 -3 7 C-3.33 6.01 -3.66 5.02 -4 4 C-2.68 2.68 -1.36 1.36 0 0 Z " fill="#7A7A7A" transform="translate(279,113)"/>
<path d="M0 0 C3.3 0 6.6 0 10 0 C10 0.66 10 1.32 10 2 C7.69 2 5.38 2 3 2 C3 2.99 3 3.98 3 5 C4.98 5 6.96 5 9 5 C9 5.66 9 6.32 9 7 C7.02 7 5.04 7 3 7 C3 7.99 3 8.98 3 10 C5.31 10 7.62 10 10 10 C10 10.66 10 11.32 10 12 C6.7 12 3.4 12 0 12 C0 8.04 0 4.08 0 0 Z " fill="#5F5F5F" transform="translate(194,114)"/>
<path d="M0 0 C1.3125 2.0625 1.3125 2.0625 2 4 C-0.31 3.67 -2.62 3.34 -5 3 C-5.33 4.65 -5.66 6.3 -6 8 C-3.525 8.99 -3.525 8.99 -1 10 C-0.67 9.01 -0.34 8.02 0 7 C0.66 7.33 1.32 7.66 2 8 C1.3125 9.9375 1.3125 9.9375 0 12 C-2.95950256 13.16822469 -4.35596292 13.26109611 -7.3125 12.0625 C-9.56147769 9.31374949 -9.5725083 7.35765533 -9.38671875 3.87890625 C-9 2 -9 2 -7.3125 -0.0625 C-4.35596292 -1.26109611 -2.95950256 -1.16822469 0 0 Z " fill="#676767" transform="translate(231,114)"/>
<path d="M0 0 C0.66 0 1.32 0 2 0 C2.33 2.97 2.66 5.94 3 9 C4.32 9.33 5.64 9.66 7 10 C7 6.7 7 3.4 7 0 C7.99 0 8.98 0 10 0 C10.08121924 1.60332791 10.13929134 3.20784026 10.1875 4.8125 C10.22230469 5.70582031 10.25710938 6.59914063 10.29296875 7.51953125 C10 10 10 10 8.68359375 11.83984375 C7 13 7 13 3.875 12.75 C1 12 1 12 0 11 C-0.07226502 9.14712498 -0.0838122 7.29166122 -0.0625 5.4375 C-0.05347656 4.42558594 -0.04445313 3.41367188 -0.03515625 2.37109375 C-0.02355469 1.58863281 -0.01195312 0.80617188 0 0 Z " fill="#696969" transform="translate(312,114)"/>
<path d="M0 0 C6.0546875 -0.1953125 6.0546875 -0.1953125 8 0 C10 2 10 2 10.265625 3.875 C10.26046875 4.57625 10.2553125 5.2775 10.25 6 C10.25515625 6.70125 10.2603125 7.4025 10.265625 8.125 C10 10 10 10 8 12 C5.31160615 12.26991906 2.70858064 12.08737357 0 12 C0 8.04 0 4.08 0 0 Z M2 2 C2 4.64 2 7.28 2 10 C3.65 9.67 5.3 9.34 7 9 C7.67958603 6.60280568 7.67958603 6.60280568 8 4 C7.34 3.34 6.68 2.68 6 2 C4.68 2 3.36 2 2 2 Z " fill="#4D4D4D" transform="translate(206,114)"/>
<path d="M0 0 C0.73992187 0.45890625 1.47984375 0.9178125 2.2421875 1.390625 C5.38402118 3.22410301 7.51917895 3.51503422 11.125 3.75 C12.15882812 3.82734375 13.19265625 3.9046875 14.2578125 3.984375 C17.09345277 4.14753138 17.09345277 4.14753138 20 3 C20.99 2.67 21.98 2.34 23 2 C23 2.99 23 3.98 23 5 C16.93353609 7.29177526 11.35025068 7.39555657 5 6 C3.35 5.01 1.7 4.02 0 3 C0 7.62 0 12.24 0 17 C-0.99 17 -1.98 17 -3 17 C-2.88660796 14.35319096 -2.75987127 11.70822482 -2.625 9.0625 C-2.5940625 8.30775391 -2.563125 7.55300781 -2.53125 6.77539062 C-2.4273685 4.84492605 -2.22104386 2.92057919 -2 1 C-1.34 0.67 -0.68 0.34 0 0 Z " fill="#E1B9DA" transform="translate(72,56)"/>
<path d="M0 0 C2.97 0 5.94 0 9 0 C9 0.66 9 1.32 9 2 C6.69 2 4.38 2 2 2 C2 2.99 2 3.98 2 5 C4.31 5 6.62 5 9 5 C9 5.66 9 6.32 9 7 C6.69 7 4.38 7 2 7 C2 7.99 2 8.98 2 10 C4.31 10 6.62 10 9 10 C9 10.66 9 11.32 9 12 C6.03 12 3.06 12 0 12 C0 8.04 0 4.08 0 0 Z " fill="#484848" transform="translate(334,114)"/>
<path d="M0 0 C0.77472656 0.00451172 1.54945312 0.00902344 2.34765625 0.01367188 C4.23180524 0.02530242 6.11591365 0.04323094 8 0.0625 C7.67 1.0525 7.34 2.0425 7 3.0625 C-0.92 3.0625 -8.84 3.0625 -17 3.0625 C-17 2.4025 -17 1.7425 -17 1.0625 C-11.28094617 0.23713655 -5.7732851 -0.06503701 0 0 Z " fill="#E33D3C" transform="translate(114,62.9375)"/>
<path d="M0 0 C0.33 0 0.66 0 1 0 C1 11.55 1 23.1 1 35 C0.67 35 0.34 35 0 35 C-0.33 30.71 -0.66 26.42 -1 22 C-1.66 22.66 -2.32 23.32 -3 24 C-4.32 24 -5.64 24 -7 24 C-6 21 -6 21 -3.48828125 18.83203125 C-0.20200434 15.09176319 -0.22624457 12.50474205 -0.1875 7.6875 C-0.16236328 6.94693359 -0.13722656 6.20636719 -0.11132812 5.44335938 C-0.05281557 3.62947031 -0.02345651 1.81468097 0 0 Z " fill="#EEB9BB" transform="translate(193,64)"/>
<path d="M0 0 C0.9075 0.474375 1.815 0.94875 2.75 1.4375 C7.92493256 3.69953238 13.42797318 3.73466539 19 4 C19 4.66 19 5.32 19 6 C14.82641202 8.08679399 9.54584374 7.44792601 5 7 C1.75 5.1875 1.75 5.1875 0 3 C0 2.01 0 1.02 0 0 Z " fill="#EC7D80" transform="translate(72,53)"/>
<path d="M0 0 C2.1458442 2.82246174 4.19929134 5.689324 6.1875 8.625 C6.71730469 9.40101563 7.24710938 10.17703125 7.79296875 10.9765625 C9 13 9 13 9 15 C6.17288273 14.63722831 5.10634802 14.10850956 3.078125 12.0390625 C2.47484375 11.24242187 1.8715625 10.44578125 1.25 9.625 C0.63640625 8.83351562 0.0228125 8.04203125 -0.609375 7.2265625 C-2 5 -2 5 -2 2 C-1.34 2 -0.68 2 0 2 C0 1.34 0 0.68 0 0 Z " fill="#E8797A" transform="translate(64,143)"/>
<path d="M0 0 C0.350625 0.639375 0.70125 1.27875 1.0625 1.9375 C3.77184206 4.82163832 6.15858911 4.7100822 10 5 C10 5.33 10 5.66 10 6 C8.35 6.33 6.7 6.66 5 7 C4.01 9.97 3.02 12.94 2 16 C1.67 16 1.34 16 1 16 C1.01160156 15.36191406 1.02320313 14.72382812 1.03515625 14.06640625 C1.04417969 13.24011719 1.05320312 12.41382812 1.0625 11.5625 C1.07990234 10.32693359 1.07990234 10.32693359 1.09765625 9.06640625 C1.23267348 7.00836062 1.23267348 7.00836062 0 6 C-0.66 8.31 -1.32 10.62 -2 13 C-2.66 13 -3.32 13 -4 13 C-3.71517632 11.58194169 -3.42181856 10.16559621 -3.125 8.75 C-2.96257813 7.96109375 -2.80015625 7.1721875 -2.6328125 6.359375 C-2.00849925 4.03168856 -1.15161458 2.10968048 0 0 Z " fill="#EE615F" transform="translate(60,92)"/>
<path d="M0 0 C2.36810318 0.94724127 3.75207953 1.65291134 5.25 3.75 C6.24988087 6.74964262 6.37837202 8.84689983 6 12 C4 15.375 4 15.375 2 18 C1.34 17.67 0.68 17.34 0 17 C0 15.68 0 14.36 0 13 C0.99 13 1.98 13 3 13 C3 10.36 3 7.72 3 5 C2.34 4.67 1.68 4.34 1 4 C0.375 1.9375 0.375 1.9375 0 0 Z " fill="#8554DD" transform="translate(88,36)"/>
<path d="M0 0 C1.58294782 -0.05437607 3.16644256 -0.09296271 4.75 -0.125 C5.63171875 -0.14820312 6.5134375 -0.17140625 7.421875 -0.1953125 C10.14854489 0.0112534 11.72251979 0.50928568 14 2 C14.75 4.125 14.75 4.125 15 6 C10 5 5 4 0 3 C0 2.01 0 1.02 0 0 Z " fill="#E36666" transform="translate(79,29)"/>
<path d="M0 0 C1.32 0.33 2.64 0.66 4 1 C4.33 3.31 4.66 5.62 5 8 C3.02 8 1.04 8 -1 8 C-1 9.32 -1 10.64 -1 12 C-1.99 12 -2.98 12 -4 12 C-3.52309796 10.37433394 -3.04340334 8.74948689 -2.5625 7.125 C-2.29566406 6.22007813 -2.02882812 5.31515625 -1.75390625 4.3828125 C-1 2 -1 2 0 0 Z M1 4 C1 4.99 1 5.98 1 7 C1.66 7 2.32 7 3 7 C2.67 6.01 2.34 5.02 2 4 C1.67 4 1.34 4 1 4 Z " fill="#757575" transform="translate(237,114)"/>
<path d="M0 0 C1.98 0.495 1.98 0.495 4 1 C4 1.66 4 2.32 4 3 C4.66 3 5.32 3 6 3 C6.33 4.32 6.66 5.64 7 7 C1.25 11 1.25 11 -1 11 C-0.67 7.37 -0.34 3.74 0 0 Z " fill="#7241D5" transform="translate(72,61)"/>
<path d="M0 0 C0.33 0 0.66 0 1 0 C1 1.65 1 3.3 1 5 C1.66 5 2.32 5 3 5 C1.76075855 9.95696581 0.21422242 12.11658466 -4 15 C-4.33 14.34 -4.66 13.68 -5 13 C-5.99 12.67 -6.98 12.34 -8 12 C-6.576875 10.9790625 -6.576875 10.9790625 -5.125 9.9375 C-1.5622062 7.01332019 -0.8726412 4.4504701 0 0 Z " fill="#E86F72" transform="translate(96,44)"/>
<path d="M0 0 C0.99 0 1.98 0 3 0 C4.33333333 4 5.66666667 8 7 12 C6.01 12 5.02 12 4 12 C3.67 11.01 3.34 10.02 3 9 C2.67 9.99 2.34 10.98 2 12 C1.34 12 0.68 12 0 12 C0 8.04 0 4.08 0 0 Z " fill="#494949" transform="translate(181,114)"/>
<path d="M0 0 C2.31 0 4.62 0 7 0 C0.84965831 8.44646925 0.84965831 8.44646925 -3 12 C-3.66 10.68 -4.32 9.36 -5 8 C-3.68 8 -2.36 8 -1 8 C-1.66 6.35 -2.32 4.7 -3 3 C-2.34 2.67 -1.68 2.34 -1 2 C-0.34 2.33 0.32 2.66 1 3 C0.67 2.01 0.34 1.02 0 0 Z " fill="#743DE1" transform="translate(63,74)"/>
<path d="M0 0 C3.3 0 6.6 0 10 0 C10 0.66 10 1.32 10 2 C8.68 2 7.36 2 6 2 C6 5.3 6 8.6 6 12 C5.34 12 4.68 12 4 12 C4 8.7 4 5.4 4 2 C2.68 2 1.36 2 0 2 C0 1.34 0 0.68 0 0 Z " fill="#434343" transform="translate(323,114)"/>
<path d="M0 0 C3.3 0 6.6 0 10 0 C10 0.66 10 1.32 10 2 C8.68 2 7.36 2 6 2 C6 5.3 6 8.6 6 12 C5.34 12 4.68 12 4 12 C4 8.7 4 5.4 4 2 C2.68 2 1.36 2 0 2 C0 1.34 0 0.68 0 0 Z " fill="#444444" transform="translate(286,114)"/>
<path d="M0 0 C3.77545388 1.09068668 6.47043472 1.9083091 9 5 C8.34 5 7.68 5 7 5 C7 5.66 7 6.32 7 7 C5.56068883 6.54738642 4.12361001 6.08767021 2.6875 5.625 C1.88699219 5.36976562 1.08648437 5.11453125 0.26171875 4.8515625 C-2 4 -2 4 -5 2 C-3.35 2 -1.7 2 0 2 C0 1.34 0 0.68 0 0 Z " fill="#EC7B7A" transform="translate(134,66)"/>
<path d="M0 0 C0.66 0 1.32 0 2 0 C4.24281523 5.20333134 5.55577239 8.34264585 4 14 C3.34 14 2.68 14 2 14 C0.66416101 9.15758367 -0.25328119 5.06562383 0 0 Z " fill="#E35A5E" transform="translate(95,35)"/>
<path d="M0 0 C3.63 0.66 7.26 1.32 11 2 C11 2.66 11 3.32 11 4 C11.66 4.33 12.32 4.66 13 5 C4.87371744 5.46882399 4.87371744 5.46882399 1.4375 3.625 C0 2 0 2 0 0 Z " fill="#7E4ADE" transform="translate(75,50)"/>
<path d="M0 0 C1 2 1 2 1.4375 5.375 C1.91695271 8.46480632 2.42124492 10.36874154 4 13 C3.34 13 2.68 13 2 13 C1.34 13.66 0.68 14.32 0 15 C-1.625 13.0625 -1.625 13.0625 -3 10 C-2.29345794 2.29345794 -2.29345794 2.29345794 0 0 Z " fill="#EC9390" transform="translate(71,41)"/>
<path d="M0 0 C0.99 0 1.98 0 3 0 C3 3.96 3 7.92 3 12 C2.01 12 1.02 12 0 12 C0 8.04 0 4.08 0 0 Z " fill="#7A7A7A" transform="translate(259,114)"/>
<path d="M0 0 C3.3 0 6.6 0 10 0 C10 0.66 10 1.32 10 2 C8.68 2 7.36 2 6 2 C6 5.3 6 8.6 6 12 C5.34 12 4.68 12 4 12 C4 8.37 4 4.74 4 1 C2.68 0.67 1.36 0.34 0 0 Z " fill="#4F4F4F" transform="translate(301,114)"/>
<path d="M0 0 C0.99 0 1.98 0 3 0 C3.1875 2.375 3.1875 2.375 3 5 C0 7 0 7 -3.1875 6.625 C-4.115625 6.41875 -5.04375 6.2125 -6 6 C-6.33 4.68 -6.66 3.36 -7 2 C-6.01 2 -5.02 2 -4 2 C-4 2.66 -4 3.32 -4 4 C-2.35 4 -0.7 4 1 4 C0.67 2.68 0.34 1.36 0 0 Z " fill="#636363" transform="translate(282,120)"/>
<path d="M0 0 C0.66 0 1.32 0 2 0 C2.042721 1.66611905 2.04063832 3.33382885 2 5 C1.67 5.33 1.34 5.66 1 6 C0.63239269 8.32817964 0.29758419 10.6618385 0 13 C-1.546875 11.7890625 -1.546875 11.7890625 -3 10 C-2.890625 7.7734375 -2.890625 7.7734375 -2.25 5.375 C-2.04890625 4.57835937 -1.8478125 3.78171875 -1.640625 2.9609375 C-1 1 -1 1 0 0 Z " fill="#E35B59" transform="translate(70,36)"/>
<path d="M0 0 C2.4750171 1.11431765 4.67883419 2.58150978 7 4 C6.01 4.33 5.02 4.66 4 5 C2.68 4.34 1.36 3.68 0 3 C0 7.62 0 12.24 0 17 C-0.99 17 -1.98 17 -3 17 C-2.88660796 14.35319096 -2.75987127 11.70822482 -2.625 9.0625 C-2.5940625 8.30775391 -2.563125 7.55300781 -2.53125 6.77539062 C-2.4273685 4.84492605 -2.22104386 2.92057919 -2 1 C-1.34 0.67 -0.68 0.34 0 0 Z " fill="#E7CFFA" transform="translate(72,56)"/>
<path d="M0 0 C1.3125 2.0625 1.3125 2.0625 2 4 C0.39125 3.7215625 0.39125 3.7215625 -1.25 3.4375 C-4.40391546 3.0695432 -6.09818492 2.95534657 -9 4 C-6.83188889 -0.80081746 -5.15395482 -1.67503532 0 0 Z " fill="#858585" transform="translate(231,114)"/>
<path d="M0 0 C0.99 0.33 1.98 0.66 3 1 C3.33 4.3 3.66 7.6 4 11 C3.01 11 2.02 11 1 11 C0.67 7.37 0.34 3.74 0 0 Z " fill="#E17271" transform="translate(195,53)"/>
<path d="M0 0 C-0.33 2.31 -0.66 4.62 -1 7 C-2.32 7 -3.64 7 -5 7 C-5 8.65 -5 10.3 -5 12 C-5.33 12 -5.66 12 -6 12 C-5.91253716 10.56138706 -5.80434652 9.12402492 -5.6875 7.6875 C-5.62949219 6.88699219 -5.57148437 6.08648437 -5.51171875 5.26171875 C-4.78420948 2.04623884 -3.45396859 0 0 0 Z " fill="#8755E4" transform="translate(79,36)"/>
<path d="M0 0 C0.33 0 0.66 0 1 0 C1 3.96 1 7.92 1 12 C-0.65 11.67 -2.3 11.34 -4 11 C-4 10.34 -4 9.68 -4 9 C-5.65 9 -7.3 9 -9 9 C-9 8.67 -9 8.34 -9 8 C-7.02 8 -5.04 8 -3 8 C-2.67 7.34 -2.34 6.68 -2 6 C-1.67 6.66 -1.34 7.32 -1 8 C-0.67 5.36 -0.34 2.72 0 0 Z " fill="#808080" transform="translate(245,114)"/>
<path d="M0 0 C0 0.33 0 0.66 0 1 C-6.14778871 2.6277833 -11.64012196 3.20190089 -18 3 C-18 2.34 -18 1.68 -18 1 C-11.95170514 0.10395632 -6.1105424 -0.11269443 0 0 Z " fill="#FB3231" transform="translate(115,63)"/>
<path d="M0 0 C3.12290635 0.48578543 5.99580359 0.9986012 9 2 C8.34 3.32 7.68 4.64 7 6 C3.535 4.02 3.535 4.02 0 2 C0 1.34 0 0.68 0 0 Z " fill="#D77572" transform="translate(158,84)"/>
<path d="M0 0 C2.3125 0.1875 2.3125 0.1875 5 1 C6.8125 3.5625 6.8125 3.5625 8 6 C4.38462395 6 2.88834003 5.10770759 0 3 C0 2.01 0 1.02 0 0 Z " fill="#E3716F" transform="translate(141,71)"/>
<path d="M0 0 C2.79828356 0.38597015 3.8205884 0.80136573 5.75 2.9375 C7 5 7 5 7 7 C3.76509224 6.44225728 2.02144994 5.62788492 0 3 C0 2.01 0 1.02 0 0 Z " fill="#E38889" transform="translate(66,151)"/>
<path d="M0 0 C0.66 0 1.32 0 2 0 C2 3.96 2 7.92 2 12 C1.01 12 0.02 12 -1 12 C-0.67 8.04 -0.34 4.08 0 0 Z " fill="#4B4B4B" transform="translate(272,114)"/>
<path d="M0 0 C0.99 0 1.98 0 3 0 C3 3.96 3 7.92 3 12 C2.34 12 1.68 12 1 12 C0.67 8.04 0.34 4.08 0 0 Z " fill="#535353" transform="translate(190,114)"/>
<path d="M0 0 C0.66 0 1.32 0 2 0 C2 3.96 2 7.92 2 12 C1.34 12 0.68 12 0 12 C0 8.04 0 4.08 0 0 Z " fill="#3A3A3A" transform="translate(218,114)"/>
<path d="M0 0 C0.66 0.33 1.32 0.66 2 1 C2 1.99 2 2.98 2 4 C0.02 4 -1.96 4 -4 4 C-4 5.32 -4 6.64 -4 8 C-4.99 8 -5.98 8 -7 8 C-6.67 6.35 -6.34 4.7 -6 3 C-3 2 -3 2 0 3 C0 2.01 0 1.02 0 0 Z " fill="#454545" transform="translate(240,118)"/>
<path d="M0 0 C2.31 0.33 4.62 0.66 7 1 C7 1.33 7 1.66 7 2 C5.35 2.33 3.7 2.66 2 3 C1.01 5.97 0.02 8.94 -1 12 C-1.33 12 -1.66 12 -2 12 C-2 9.69 -2 7.38 -2 5 C-1.34 5 -0.68 5 0 5 C0 3.35 0 1.7 0 0 Z " fill="#F27F80" transform="translate(63,96)"/>
<path d="M0 0 C1.32 0.33 2.64 0.66 4 1 C4 1.66 4 2.32 4 3 C4.66 3 5.32 3 6 3 C5.67 3.99 5.34 4.98 5 6 C3.68 6 2.36 6 1 6 C0.67 4.02 0.34 2.04 0 0 Z " fill="#5D17E5" transform="translate(72,61)"/>
<path d="M0 0 C0 0.66 0 1.32 0 2 C-2.52475462 3.26237731 -4.31200466 3.09856404 -7.125 3.0625 C-8.03507812 3.05347656 -8.94515625 3.04445312 -9.8828125 3.03515625 C-10.58148438 3.02355469 -11.28015625 3.01195312 -12 3 C-8.6463584 -0.3536416 -4.57608788 0 0 0 Z " fill="#D34949" transform="translate(91,57)"/>
<path d="M0 0 C-3.72965139 2.03435531 -5.66905042 3 -10 3 C-10 2.01 -10 1.02 -10 0 C-3.375 -1.125 -3.375 -1.125 0 0 Z " fill="#DF6B6A" transform="translate(121,24)"/>
<path d="M0 0 C1.27875 -0.061875 2.5575 -0.12375 3.875 -0.1875 C4.95394531 -0.23970703 4.95394531 -0.23970703 6.0546875 -0.29296875 C6.69664062 -0.19628906 7.33859375 -0.09960938 8 0 C8.66 0.99 9.32 1.98 10 3 C7.03 3 4.06 3 1 3 C0.67 2.01 0.34 1.02 0 0 Z " fill="#DE7474" transform="translate(145,21)"/>
<path d="M0 0 C2.31 0 4.62 0 7 0 C5.35 1.65 3.7 3.3 2 5 C1.34 3.35 0.68 1.7 0 0 Z " fill="#814BE4" transform="translate(63,74)"/>
<path d="M0 0 C0.99 0 1.98 0 3 0 C2.7834375 0.7425 2.7834375 0.7425 2.5625 1.5 C1.78005593 4.97752922 1.41305236 8.45955123 1 12 C0.67 12 0.34 12 0 12 C0 8.04 0 4.08 0 0 Z " fill="#272727" transform="translate(264,114)"/>
<path d="M0 0 C0 2.33333333 0 4.66666667 0 7 C-0.99 7.33 -1.98 7.66 -3 8 C-3 7.34 -3 6.68 -3 6 C-3.99 5.67 -4.98 5.34 -6 5 C-4.02 3.35 -2.04 1.7 0 0 Z " fill="#ED9292" transform="translate(94,51)"/>
<path d="M0 0 C1.9375 0.8125 1.9375 0.8125 4 2 C5 5 5 5 4.0625 7.1875 C3.5365625 8.0846875 3.5365625 8.0846875 3 9 C3 7.68 3 6.36 3 5 C2.34 4.67 1.68 4.34 1 4 C0.375 1.9375 0.375 1.9375 0 0 Z " fill="#7F4BDB" transform="translate(88,36)"/>
<path d="M0 0 C1.98 0.66 3.96 1.32 6 2 C5.67 2.99 5.34 3.98 5 5 C2.69 4.34 0.38 3.68 -2 3 C-1.34 2.67 -0.68 2.34 0 2 C0 1.34 0 0.68 0 0 Z " fill="#E78886" transform="translate(168,26)"/>
<path d="M0 0 C-0.33 0.66 -0.66 1.32 -1 2 C-3.5625 2.625 -3.5625 2.625 -6 3 C-6 2.34 -6 1.68 -6 1 C-6.66 0.67 -7.32 0.34 -8 0 C-4.71023192 -1.09658936 -3.28696233 -0.79953138 0 0 Z " fill="#E98282" transform="translate(188,88)"/>
<path d="M0 0 C0.66 0.33 1.32 0.66 2 1 C0.29374499 3.78388975 -0.47626739 4.85384206 -3.6875 5.75 C-4.8321875 5.87375 -4.8321875 5.87375 -6 6 C-4 4 -2 2 0 0 Z " fill="#EF7E82" transform="translate(79,70)"/>
<path d="M0 0 C2.97 0.495 2.97 0.495 6 1 C6.33 1.99 6.66 2.98 7 4 C4.03 3.505 4.03 3.505 1 3 C0.67 2.01 0.34 1.02 0 0 Z " fill="#DE6C72" transform="translate(172,29)"/>
<path d="M0 0 C3.1875 0.875 3.1875 0.875 6 2 C3 3.5 3 3.5 0 5 C-0.33 4.34 -0.66 3.68 -1 3 C-1.66 2.67 -2.32 2.34 -3 2 C-2.01 1.34 -1.02 0.68 0 0 Z " fill="#EC8D8B" transform="translate(76,30)"/>
<path d="M0 0 C2.31 0 4.62 0 7 0 C7 0.99 7 1.98 7 3 C4.69 2.67 2.38 2.34 0 2 C0 1.34 0 0.68 0 0 Z " fill="#E16B6B" transform="translate(161,25)"/>
<path d="M0 0 C0.66 0.33 1.32 0.66 2 1 C1.01 3.97 0.02 6.94 -1 10 C-1.33 10 -1.66 10 -2 10 C-2 7.03 -2 4.06 -2 1 C-1.34 0.67 -0.68 0.34 0 0 Z " fill="#808080" transform="translate(267,116)"/>
<path d="M0 0 C0.33 0.66 0.66 1.32 1 2 C0.06694014 4.71435596 -0.62673377 5.78043163 -3.125 7.25 C-3.74375 7.4975 -4.3625 7.745 -5 8 C-3.8141763 4.62496331 -2.72426311 2.35277269 0 0 Z " fill="#EC7577" transform="translate(69,79)"/>
<path d="M0 0 C2.64 0 5.28 0 8 0 C5.61426621 1.89213369 3.92824652 3.02391783 1 4 C0.67 2.68 0.34 1.36 0 0 Z " fill="#8E68C8" transform="translate(80,62)"/>
<path d="M0 0 C3.465 1.485 3.465 1.485 7 3 C5.02 3.99 5.02 3.99 3 5 C2.01 4.34 1.02 3.68 0 3 C0 2.01 0 1.02 0 0 Z " fill="#E06C6A" transform="translate(72,53)"/>
</svg>
